<?xml version="1.0" encoding="UTF-8" standalone="no"?>
<svg
   width="2500"
   height="2499.9998"
   viewBox="0 0 661.45837 661.45827"
   version="1.1"
   id="svg8"
   inkscape:version="1.4 (86a8ad7, 2024-10-11)"
   sodipodi:docname="favicon.svg"
   inkscape:export-filename="apple-touch-icon.png"
   inkscape:export-xdpi="6.9120002"
   inkscape:export-ydpi="6.9120002"
   xmlns:inkscape="http://www.inkscape.org/namespaces/inkscape"
   xmlns:sodipodi="http://sodipodi.sourceforge.net/DTD/sodipodi-0.dtd"
   xmlns="http://www.w3.org/2000/svg"
   xmlns:svg="http://www.w3.org/2000/svg"
   xmlns:rdf="http://www.w3.org/1999/02/22-rdf-syntax-ns#"
   xmlns:cc="http://creativecommons.org/ns#"
   xmlns:dc="http://purl.org/dc/elements/1.1/">
  <defs
     id="defs2">
    <clipPath
       clipPathUnits="userSpaceOnUse"
       id="clipPath855">
      <rect
         style="fill:#b3b3b3;fill-opacity:1;stroke:none;stroke-width:7.86072;stroke-miterlimit:4;stroke-dasharray:none;stroke-opacity:1"
         id="rect857"
         width="576.79169"
         height="375.33112"
         x="-76.351189"
         y="189.36531" />
    </clipPath>
    <clipPath
       clipPathUnits="userSpaceOnUse"
       id="clipPath863">
      <rect
         style="fill:#b3b3b3;fill-opacity:1;stroke:none;stroke-width:5.29167;stroke-miterlimit:4;stroke-dasharray:none;stroke-opacity:1"
         id="rect865"
         width="293.30951"
         height="195.41368"
         x="44.686256"
         y="207.07713"
         transform="rotate(-1.15)" />
    </clipPath>
    <clipPath
       clipPathUnits="userSpaceOnUse"
       id="clipPath863-1">
      <rect
         style="fill:#b3b3b3;fill-opacity:1;stroke:none;stroke-width:5.29167;stroke-miterlimit:4;stroke-dasharray:none;stroke-opacity:1"
         id="rect865-0"
         width="293.30951"
         height="195.41368"
         x="44.686256"
         y="207.07713"
         transform="rotate(-1.15)" />
    </clipPath>
    <clipPath
       clipPathUnits="userSpaceOnUse"
       id="clipPath863-1-0">
      <rect
         style="fill:#b3b3b3;fill-opacity:1;stroke:none;stroke-width:5.29167;stroke-miterlimit:4;stroke-dasharray:none;stroke-opacity:1"
         id="rect865-0-7"
         width="293.30951"
         height="195.41368"
         x="44.686256"
         y="207.07713"
         transform="rotate(-1.15)" />
    </clipPath>
    <clipPath
       clipPathUnits="userSpaceOnUse"
       id="clipPath46">
      <rect
         style="fill:#ffffff;fill-opacity:1;stroke:none;stroke-width:8.07426;stroke-miterlimit:4;stroke-dasharray:none;stroke-opacity:1"
         id="rect48"
         width="208.72144"
         height="91.887604"
         x="61.383972"
         y="278.7515"
         transform="rotate(-1.1500001)" />
    </clipPath>
    <clipPath
       clipPathUnits="userSpaceOnUse"
       id="clipPath879">
      <path
         style="fill:#ffffff;stroke:none;stroke-width:0.264583px;stroke-linecap:butt;stroke-linejoin:miter;stroke-opacity:1"
         d="m 71.300676,363.49533 -0.253847,-12.64558 -1.416866,-7.56197 5.23475,-7.06295 6.732943,-11.20451 8.693242,-8.08119 14.965252,-10.73722 10.03396,-4.31289 2.49103,-1.94761 4.03366,-3.87617 4.08442,-1.34707 11.53215,-8.45443 5.87032,-3.23438 5.98633,-2.58015 4.55909,-1.2656 6.85043,-1.3116 6.5252,-0.8019 1.40276,0.25139 -0.84705,2.36517 4.00808,-0.86318 5.64,-0.33685 6.3241,0.32032 -0.83994,0.37661 2.53864,0.42345 6.88554,0.33618 3.41119,0.56406 5.78858,0.8326 5.7854,0.67453 5.47244,0.83895 12.29323,1.88802 0.32248,0.3098 6.50148,0.89736 4.21898,1.41757 -0.14061,0.87256 1.35786,0.68434 0.50119,1.33408 -0.25109,3.24678 -1.62612,5.64638 -1.07287,5.63528 11.05563,3.257 19.17461,9.89377 9.33144,7.95656 0.0301,1.50166 -19.18078,13.43105 3.31499,3.64959 -3.08206,4.01521 -4.22475,6.17295 23.02638,4.83525 -1.69275,2.32691 -16.00469,-1.65539 -3.76512,1.49878 5.88032,1.4633 -0.36345,1.58863 -13.52447,-0.20292 -21.48853,-7.00091 -3.26551,2.75382 -0.93255,0.80939 -1.73401,0.27201 2.48181,1.53151 7.17818,3.09765 -152.692035,3.22327 z"
         id="path881"
         inkscape:connector-curvature="0" />
    </clipPath>
  </defs>
  <sodipodi:namedview
     id="base"
     pagecolor="#606060"
     bordercolor="#000000"
     borderopacity="1"
     inkscape:pageopacity="0"
     inkscape:pageshadow="2"
     inkscape:zoom="0.27440003"
     inkscape:cx="1249.9999"
     inkscape:cy="1249.9999"
     inkscape:document-units="px"
     inkscape:current-layer="layer1"
     inkscape:document-rotation="0"
     showgrid="false"
     showguides="true"
     inkscape:guide-bbox="true"
     inkscape:pagecheckerboard="true"
     borderlayer="true"
     inkscape:showpageshadow="false"
     inkscape:window-width="1500"
     inkscape:window-height="930"
     inkscape:window-x="-6"
     inkscape:window-y="-6"
     inkscape:window-maximized="1"
     inkscape:snap-page="true"
     units="px"
     inkscape:snap-smooth-nodes="false"
     inkscape:snap-bbox="true"
     inkscape:bbox-nodes="true"
     inkscape:bbox-paths="true"
     inkscape:snap-intersection-paths="true"
     fit-margin-top="0"
     fit-margin-left="0"
     fit-margin-right="0"
     fit-margin-bottom="0"
     inkscape:deskcolor="#d1d1d1" />
  <metadata
     id="metadata5">
    <rdf:RDF>
      <cc:Work
         rdf:about="">
        <dc:format>image/svg+xml</dc:format>
        <dc:type
           rdf:resource="http://purl.org/dc/dcmitype/StillImage" />
      </cc:Work>
    </rdf:RDF>
  </metadata>
  <g
     inkscape:label="Layer 1"
     inkscape:groupmode="layer"
     id="layer1"
     transform="translate(41.654731,-608.5348)">
    <path
       id="path951"
       style="font-style:normal;font-variant:normal;font-weight:900;font-stretch:normal;font-size:245.06px;line-height:1.25;font-family:Arial;-inkscape-font-specification:'Arial Heavy';letter-spacing:0px;word-spacing:0px;fill:#404c80;fill-opacity:1;stroke:none;stroke-width:43.8426"
       d="M -41.65473,723.27109 V 856.75695 H 94.481859 V 1155.2568 H 227.96648 292.79419 619.80362 V 1021.771 H 483.66437 c 5.54936,-22.59951 8.32524,-50.59011 8.32524,-83.98003 0,-29.46695 -3.53494,-57.36233 -10.60693,-83.68605 -7.07216,-26.32376 -18.46704,-49.40633 -34.18275,-69.24739 -15.71571,-19.84104 -35.65473,-35.06604 -59.8176,-45.67411 -23.96639,-10.60811 -55.49544,-15.91233 -94.58814,-15.91233 H 94.481859 Z m 285.30317,133.48586 h 23.27927 c 24.17197,0 41.47693,5.90553 51.91486,17.71683 10.43789,11.81135 15.6578,33.71686 15.6578,65.71729 0,24.17189 -2.33469,41.68331 -7.00427,52.53327 -4.66962,10.71266 -11.12567,18.26586 -19.36608,22.66076 -8.24047,4.2576 -22.11095,6.3859 -41.61331,6.3859 h -22.86827 z"
       inkscape:connector-curvature="0" />
  </g>
</svg>
